<svg width="28" height="27" fill="none" xmlns="http://www.w3.org/2000/svg"><mask id="a" fill="#fff"><path d="M12.728.586a2 2 0 0 1 2.828 0L26.87 11.899a2 2 0 0 1 0 2.829L15.556 26.042a2 2 0 0 1-2.828 0L1.414 14.728a2 2 0 0 1 0-2.829L12.728.586Z"/></mask><path d="M12.728.586a2 2 0 0 1 2.828 0L26.87 11.899a2 2 0 0 1 0 2.829L15.556 26.042a2 2 0 0 1-2.828 0L1.414 14.728a2 2 0 0 1 0-2.829L12.728.586Z" fill="#fff"/><path d="m1.414 14.728-.707.707.707-.707Zm0-2.829.707.708-.707-.707Zm14.142 14.143.707.707-.707-.707Zm-2.828 0 .707-.708-.707.708ZM26.87 11.899l.707-.707-.707.707Zm0 2.829-.707-.707.707.707ZM15.556.586l-.707.707.707-.707Zm-2.828 0-.707-.707.707.707Zm2.121.707 11.314 11.314 1.414-1.415L16.263-.12 14.85 1.293ZM26.163 14.02 14.849 25.334l1.414 1.415 11.314-11.314-1.414-1.414ZM13.435 25.334 2.121 14.021.707 15.435l11.314 11.314 1.414-1.415ZM2.121 12.607 13.435 1.293 12.021-.121.707 11.192l1.414 1.415Zm0 1.414a1 1 0 0 1 0-1.414L.707 11.192a3 3 0 0 0 0 4.243l1.414-1.414ZM14.85 25.334a1 1 0 0 1-1.414 0l-1.414 1.415a3 3 0 0 0 4.242 0l-1.414-1.415Zm11.314-12.727a1 1 0 0 1 0 1.414l1.414 1.414a3 3 0 0 0 0-4.243l-1.414 1.415Zm-9.9-12.728a3 3 0 0 0-4.242 0l1.414 1.414a1 1 0 0 1 1.414 0l1.414-1.414Z" fill="#DDE3EB" mask="url(#a)"/></svg>